<svg xmlns="http://www.w3.org/2000/svg" viewBox="0 0 512 512"><!--!Font Awesome Free 6.5.1 by @fontawesome - https://fontawesome.com License - https://fontawesome.com/license/free Copyright 2024 Fonticons, Inc.--><path fill="#334155" d="M156.6 384.9L125.7 354c-8.5-8.5-11.5-20.8-7.7-32.2c3-8.9 7-20.5 11.8-33.8L24 288c-8.6 0-16.6-4.6-20.9-12.1s-4.2-16.7 .2-24.1l52.5-88.5c13-21.9 36.5-35.3 61.9-35.3l82.3 0c2.4-4 4.8-7.7 7.2-11.3C289.1-4.1 411.1-8.1 483.9 5.3c11.6 2.1 20.6 11.2 22.8 22.8c13.4 72.9 9.3 194.8-111.4 276.7c-3.5 2.4-7.3 4.8-11.3 7.2l0 82.3c0 25.4-13.4 49-35.3 61.9l-88.5 52.5c-7.4 4.4-16.6 4.5-24.1 .2s-12.1-12.2-12.1-20.9l0-105.8c-13.2 4.8-24.9 8.9-33.8 11.8c-11.4 3.8-23.7 .8-32.2-7.7zM437.5 68.1c-60.5-26.6-146.4-15.6-224.9 62.9L170 173.5l146.3 36.6 36.6 146.3 42.5-42.5c78.5-78.5 89.5-164.4 62.9-224.9c-8-18.1-19.1-34.9-32.7-50.1c-15.3-13.6-32-24.7-50.1-32.7zM196.8 315.2l-21.4 21.4c-9.4 9.4-9.4 24.6 0 33.9s24.6 9.4 33.9 0l21.4-21.4c-12-3-22.6-8.1-31.8-14.7c-6.6-9.2-11.7-19.8-14.7-31.8l12.6-12.6L196.8 315.2z"/></svg>
